<?xml version="1.0" encoding="UTF-8"?>
<svg width="47px" height="47px" viewBox="0 0 47 47" version="1.1" xmlns="http://www.w3.org/2000/svg" xmlns:xlink="http://www.w3.org/1999/xlink">
    <!-- Generator: Sketch 52.2 (67145) - http://www.bohemiancoding.com/sketch -->
    <title>bank-building (1)</title>
    <desc>Created with Sketch.</desc>
    <g id="Page-1" stroke="none" stroke-width="1" fill="none" fill-rule="evenodd">
        <g id="9_Контакты" transform="translate(-99.000000, -520.000000)">
            <g id="bank-building-(1)" transform="translate(100.000000, 521.000000)">
                <path d="M32.5539583,30.9956596 L12.979,30.9956596 C12.4381667,30.9956596 12,31.4431489 12,31.9959574 C12,32.5478298 12.4381667,32.9953191 12.979,32.9953191 L32.5535,32.9953191 C33.0943333,32.9953191 33.5325,32.5478298 33.5325,31.9959574 C33.5320417,31.4431489 33.093875,30.9956596 32.5539583,30.9956596 Z" id="Path" fill="#3C5B3B"></path>
                <path d="M14.2022917,28.396383 C13.6614583,28.396383 13.2232917,28.8438723 13.2232917,29.3962128 C13.2232917,29.9485532 13.6614583,30.3965106 14.2022917,30.3965106 L31.3302083,30.3965106 C31.8710417,30.3965106 32.3092083,29.9485532 32.3092083,29.3962128 C32.3092083,28.8438723 31.8710417,28.396383 31.3302083,28.396383 L31.0859167,28.396383 L31.0859167,19.3997872 L31.3302083,19.3997872 C31.6010833,19.3997872 31.81925,19.1760426 31.81925,18.9003404 C31.81925,18.6246383 31.6001667,18.4008936 31.3302083,18.4008936 L14.2022917,18.4008936 C13.931875,18.4008936 13.71325,18.6246383 13.71325,18.9003404 C13.71325,19.1760426 13.9323333,19.3997872 14.2022917,19.3997872 L14.4470417,19.3997872 L14.4470417,28.3959149 L14.2022917,28.3959149 L14.2022917,28.396383 Z M29.1279167,19.3997872 L29.1279167,28.3959149 L26.1918333,28.3959149 L26.1918333,19.3997872 L29.1279167,19.3997872 Z M24.2338333,19.3997872 L24.2338333,28.3959149 L21.29775,28.3959149 L21.29775,19.3997872 L24.2338333,19.3997872 Z M16.404125,19.3997872 L19.3402083,19.3997872 L19.3402083,28.3959149 L16.404125,28.3959149 L16.404125,19.3997872 Z" id="Shape" fill="#3C5B3B" fill-rule="nonzero"></path>
                <g id="Group-6-Copy-3" fill-rule="nonzero" stroke="#3C5B3B">
                    <circle id="Oval" cx="22.5" cy="22.5" r="22.5"></circle>
                </g>
                <path d="M12.979,17.5021702 L32.5535,17.5021702 C32.5567083,17.5021702 32.560375,17.5021702 32.563125,17.5021702 C33.1044167,17.5021702 33.542125,17.0546809 33.542125,16.5023404 C33.542125,16.0632766 33.2652917,15.6911489 32.88075,15.5563404 L23.1686667,11.0931489 C22.913375,10.9761277 22.6214167,10.9761277 22.3656667,11.0931489 L12.5775,15.5909787 C12.1562917,15.784766 11.9248333,16.2519149 12.022,16.7125106 C12.1187083,17.1731064 12.5174583,17.5021702 12.979,17.5021702 Z" id="Path" fill="#3C5B3B"></path>
            </g>
        </g>
    </g>
</svg>