<?xml version="1.0" encoding="UTF-8"?>
<svg width="31px" height="30px" viewBox="0 0 31 30" version="1.1" xmlns="http://www.w3.org/2000/svg" xmlns:xlink="http://www.w3.org/1999/xlink">
  <!-- Generator: Sketch 52.2 (67145) - http://www.bohemiancoding.com/sketch -->
  <title>shopping-store-cart-</title>
  <desc>Created with Sketch.</desc>
  <g id="Page-1" stroke="none" stroke-width="1" fill="none" fill-rule="evenodd">
    <g id="1_главная" transform="translate(-1301.000000, -31.000000)" fill="#000000" fill-rule="nonzero">
      <g id="Group-2" transform="translate(1301.000000, 25.000000)">
        <g id="shopping-store-cart-" transform="translate(0.000000, 6.480000)">
          <path d="M30.454059,8.39951246 C30.725712,8.73435639 30.8274709,9.1361691 30.7596686,9.60495059 L29.469317,16.9046029 C29.4240415,17.2842021 29.2485435,17.5966137 28.9429894,17.8421659 C28.6373798,18.0877181 28.2922096,18.2104942 27.9073124,18.2104942 L9.095344,18.2104942 L8.72182116,20.2865265 L26.6509729,20.2865265 C27.0810901,20.2865265 27.454391,20.4372063 27.7714859,20.7385658 C28.0884699,21.0399254 28.2467677,21.4138344 28.2467677,21.860293 C28.2467677,22.3067516 28.0884144,22.6806606 27.7714859,22.9820201 C27.454391,23.2833797 27.0810901,23.4340594 26.6509729,23.4340594 L6.82025035,23.4340594 C6.34485764,23.4340594 5.93737818,23.2443146 5.59781197,22.8649889 C5.2808835,22.4853897 5.15637589,22.0500379 5.22428913,21.5590976 L6.07320467,17.0052202 L4.78285305,4.21407281 L1.1155379,3.07560347 C0.685420697,2.9416659 0.374151665,2.68489751 0.181730809,2.30546244 C-0.0106900476,1.92591794 -0.0503061062,1.52415994 0.0628826327,1.1000243 C0.198709119,0.675888665 0.464702656,0.3689484 0.860863242,0.179203508 C1.25702383,-0.0105413828 1.65884385,-0.0496065075 2.06632331,0.0620081344 L6.7523371,1.53532141 C7.04662783,1.62461312 7.28998361,1.79203508 7.48240447,2.0375873 C7.67482533,2.28313951 7.7936735,2.56223083 7.838949,2.87475182 L8.11060197,5.41956566 L29.3674471,7.76347314 C29.8428398,7.83027779 30.2050438,8.04234561 30.454059,8.39951246 Z M9.23122597,24.3046536 C9.91035841,24.3046536 10.487621,24.5390444 10.9630137,25.0079353 C11.4384064,25.4765527 11.6761027,26.0459515 11.6761027,26.7156393 C11.6761027,27.3851631 11.4384064,27.9601426 10.9630137,28.4400856 C10.487621,28.9200285 9.91035841,29.16 9.23122597,29.16 C8.55209354,29.16 7.97483097,28.9200285 7.49943827,28.4400856 C7.02404556,27.9601973 6.78634921,27.3853272 6.78634921,26.7156393 C6.78634921,26.0459515 7.02404556,25.4766074 7.49943827,25.0079353 C7.97477548,24.5390444 8.55203805,24.3046536 9.23122597,24.3046536 Z M23.7306479,24.3046536 C24.4096694,24.3046536 24.9870984,24.5390444 25.4624911,25.0079353 C25.9376619,25.4765527 26.1755802,26.0459515 26.1755802,26.7156393 C26.1755802,27.3851631 25.9378284,27.9601426 25.4624911,28.4400856 C24.9870984,28.9200285 24.4096694,29.16 23.7306479,29.16 C23.0515155,29.16 22.474142,28.9200285 21.9989157,28.4400856 C21.523523,27.9601973 21.2856602,27.3853272 21.2856602,26.7156393 C21.2856602,26.0459515 21.5234121,25.4766074 21.9989157,25.0079353 C22.4742529,24.5390444 23.0515155,24.3046536 23.7306479,24.3046536 Z" id="Shape"></path>
        </g>
      </g>
    </g>
  </g>
</svg>