<?xml version="1.0" encoding="UTF-8"?>
<svg width="22px" height="22px" viewBox="0 0 22 22" version="1.1" xmlns="http://www.w3.org/2000/svg" xmlns:xlink="http://www.w3.org/1999/xlink">
    <!-- Generator: Sketch 52.2 (67145) - http://www.bohemiancoding.com/sketch -->
    <title>close (2)</title>
    <desc>Created with Sketch.</desc>
    <g id="Page-1" stroke="none" stroke-width="1" fill="none" fill-rule="evenodd">
        <g id="7_о-нас" transform="translate(-1095.000000, -268.000000)" fill="#FFFFFF">
            <g id="close-(2)" transform="translate(1095.000000, 268.000000)">
                <path d="M12.9456547,11.0002293 L21.5968814,2.34864183 C22.1343729,1.81158665 22.1343729,0.94019054 21.5968814,0.403135358 C21.05939,-0.134378453 20.1889475,-0.134378453 19.6514561,0.403135358 L11.0002293,9.05472284 L2.34854391,0.403135358 C1.81105251,-0.134378453 0.940609952,-0.134378453 0.403118551,0.403135358 C-0.13437285,0.94019054 -0.13437285,1.81158665 0.403118551,2.34864183 L9.05480394,11.0002293 L0.403118551,19.6518168 C-0.13437285,20.188872 -0.13437285,21.0602681 0.403118551,21.5973233 C0.671864251,21.8656215 1.02407705,22 1.37583123,22 C1.72758542,22 2.07979821,21.8656215 2.34854391,21.5968646 L11.0002293,12.9452772 L19.6514561,21.5968646 C19.9202018,21.8656215 20.2724146,22 20.6241688,22 C20.975923,22 21.3281357,21.8656215 21.5968814,21.5968646 C22.1343729,21.0598095 22.1343729,20.1884134 21.5968814,19.6513582 L12.9456547,11.0002293 Z" id="Path"></path>
            </g>
        </g>
    </g>
</svg>