<?xml version="1.0" encoding="UTF-8"?>
<svg width="16px" height="16px" viewBox="0 0 16 16" version="1.1" xmlns="http://www.w3.org/2000/svg" xmlns:xlink="http://www.w3.org/1999/xlink">
    <!-- Generator: Sketch 52.2 (67145) - http://www.bohemiancoding.com/sketch -->
    <title>error (2)</title>
    <desc>Created with Sketch.</desc>
    <g id="Page-1" stroke="none" stroke-width="1" fill="none" fill-rule="evenodd" opacity="0.290527344">
        <g id="12_Корзина-1" transform="translate(-1319.000000, -430.000000)" fill="#000000" fill-rule="nonzero">
            <g id="error-(2)" transform="translate(1319.000000, 430.000000)">
                <path d="M13.6596065,2.34047517 C10.5390818,-0.780004472 5.46134144,-0.780312302 2.34050894,2.34047517 C-0.780323562,5.46126264 -0.780015727,10.5386219 2.34050894,13.6594094 C5.46103361,16.7801969 10.538774,16.7801969 13.6596065,13.6594094 C16.7801312,10.5386219 16.7801312,5.46095481 13.6596065,2.34047517 Z M11.1562913,11.1561303 C10.915872,11.396546 10.5261528,11.396546 10.2857335,11.1561303 L8.00005772,8.87048746 L5.60571611,11.2647945 C5.36529688,11.5052103 4.97557761,11.5052103 4.73515838,11.2647945 C4.49473915,11.0243787 4.49473915,10.6346651 4.73515838,10.3942493 L7.12949999,7.99994228 L4.84382418,5.71429946 C4.60340495,5.47388369 4.60340495,5.08386222 4.84382418,4.84375428 C5.08424341,4.60333852 5.47396268,4.60333852 5.71438191,4.84375428 L8.00005772,7.12939711 L10.1767599,4.95272635 C10.4171791,4.71231058 10.8068984,4.71231058 11.0473176,4.95272635 C11.2877369,5.19314211 11.2877369,5.58285576 11.0473176,5.82327152 L8.87061545,7.99994228 L11.1562913,10.2855851 C11.3967105,10.5260009 11.3967105,10.9157145 11.1562913,11.1561303 Z" id="Shape"></path>
            </g>
        </g>
    </g>
</svg>