<?xml version="1.0" encoding="UTF-8"?>
<svg width="62px" height="43px" viewBox="0 0 62 43" version="1.1" xmlns="http://www.w3.org/2000/svg" xmlns:xlink="http://www.w3.org/1999/xlink">
    <!-- Generator: Sketch 52.2 (67145) - http://www.bohemiancoding.com/sketch -->
    <title>delivery-package-opened (1)</title>
    <desc>Created with Sketch.</desc>
    <g id="Page-1" stroke="none" stroke-width="1" fill="none" fill-rule="evenodd">
        <g id="8_Доставка-и-оплата" transform="translate(-827.000000, -485.000000)" fill="#3C5B3B" fill-rule="nonzero">
            <g id="Group-9" transform="translate(100.000000, 407.000000)">
                <g id="Group-8">
                    <g id="delivery-package-opened-(1)" transform="translate(727.000000, 78.000000)">
                        <path d="M30.9003025,13.2392824 L30.9003025,38.6650925 L51.2405606,34.8235764 L51.2405606,22.4353093 C51.2405606,21.9166951 51.6944168,21.5139221 52.2120967,21.5730022 L54.7144859,21.9583334 C55.154767,22.0086422 55.487156,22.3795563 55.487156,22.8206405 L55.487156,37.2123878 C55.487156,37.6215124 55.2001527,37.9749847 54.798267,38.0609835 L32.5322603,42.8255 C31.4562764,43.0556704 30.3436194,43.0581908 29.2666225,42.832759 L7.2395995,38.2217903 C6.84429878,38.1391185 6.55780201,37.7969379 6.54726606,37.3949715 L6.16675619,22.7788005 C6.15480194,22.3203754 6.50329873,21.9319188 6.96222037,21.8917927 L25.6728507,20.255597 C25.9973377,20.2272668 26.2788704,20.0211922 26.4029717,19.7215574 L29.2217434,12.9088977 C29.5854363,12.0297538 30.9003025,12.2886576 30.9003025,13.2392824 Z M5.95512544,4.91463633 L0.0835624412,17.4047308 C-0.203339564,18.0150906 0.287595153,18.703787 0.96118676,18.6360364 L23.0118144,16.4187185 C23.3234353,16.3873637 23.5942295,16.1921776 23.7212687,15.9072624 L30.8163188,0 L6.58758632,4.42878833 C6.3103085,4.47950042 6.07466794,4.66047099 5.95512544,4.91463633 Z M30.8164201,1.42108547e-14 L38.3238919,16.404503 C38.4550847,16.691233 38.7320586,16.8846043 39.0477319,16.9099099 L61.0567222,18.6713232 C61.7199805,18.7243541 62.1962257,18.0484618 61.9200622,17.4459659 L56.1801986,4.92300433 C56.0614665,4.66399966 55.8227868,4.47950042 55.5411527,4.42898997 L30.8164201,1.42108547e-14 Z" id="Shape"></path>
                    </g>
                </g>
            </g>
        </g>
    </g>
</svg>