<?xml version="1.0" encoding="UTF-8"?>
<svg width="55px" height="39px" viewBox="0 0 55 39" version="1.1" xmlns="http://www.w3.org/2000/svg" xmlns:xlink="http://www.w3.org/1999/xlink">
    <!-- Generator: Sketch 52.2 (67145) - http://www.bohemiancoding.com/sketch -->
    <title>delivery-truck (1)</title>
    <desc>Created with Sketch.</desc>
    <g id="Page-1" stroke="none" stroke-width="1" fill="none" fill-rule="evenodd">
        <g id="8_Доставка-и-оплата" transform="translate(-130.000000, -489.000000)" fill="#3C5B3B" fill-rule="nonzero">
            <g id="Group-8" transform="translate(100.000000, 407.000000)">
                <g id="Group-6" transform="translate(0.000000, 82.000000)">
                    <g id="delivery-truck-(1)" transform="translate(30.000000, 0.000000)">
                        <path d="M1.92985294,25.9568472 L1.92985294,2.44995833 C1.92985294,1.14372917 2.98392974,0.0847708333 4.28433824,0.0847708333 L27.6728186,0.0847708333 C28.9731373,0.0847708333 30.0272141,1.14372917 30.0272141,2.44995833 L30.0272141,25.9569375 C30.0272141,26.3923472 29.675915,26.7453333 29.2423856,26.7453333 L2.71468137,26.7453333 C2.28115196,26.7453333 1.92985294,26.3923472 1.92985294,25.9568472 Z M20.816781,34.0098056 C20.816781,36.7190417 18.6303513,38.9153194 15.9334641,38.9153194 C13.2365768,38.9153194 11.0501471,36.7190417 11.0501471,34.0098056 C11.0501471,31.3004792 13.2365768,29.1042917 15.9334641,29.1042917 C18.6303513,29.1042917 20.816781,31.3004792 20.816781,34.0098056 Z M18.3750327,34.0098056 C18.3750327,32.6551875 17.2818627,31.5570486 15.9333742,31.5570486 C14.5848856,31.5570486 13.4916258,32.6551875 13.4916258,34.0098056 C13.4916258,35.3644236 14.5848856,36.4626528 15.9333742,36.4626528 C17.2818627,36.4626528 18.3750327,35.3644236 18.3750327,34.0098056 Z M11.7274918,29.1042014 L0.784828431,29.1042014 C0.351388889,29.1042014 0,29.4571875 0,29.8925972 L0,32.2845069 C0,32.7199167 0.351388889,33.0729028 0.784828431,33.0729028 L9.55589052,33.0729028 C9.78487745,31.4944861 10.5779739,30.1002361 11.7274918,29.1042014 Z M46.3669771,34.0098056 C46.3669771,36.7190417 44.1805474,38.9153194 41.4836601,38.9153194 C38.786683,38.9153194 36.6003431,36.7190417 36.6003431,34.0098056 C36.6003431,31.3004792 38.786683,29.1042917 41.4836601,29.1042917 C44.1805474,29.1042014 46.3669771,31.3004792 46.3669771,34.0098056 Z M43.9254085,34.0098056 C43.9254085,32.6551875 42.8321487,31.5570486 41.4836601,31.5570486 C40.1350817,31.5570486 39.0420016,32.6551875 39.0420016,34.0098056 C39.0420016,35.3644236 40.1351716,36.4626528 41.4836601,36.4626528 C42.8321487,36.4626528 43.9254085,35.3644236 43.9254085,34.0098056 Z M55,29.8925972 L55,32.2845069 C55,32.7199167 54.6486111,33.0729028 54.2151716,33.0729028 L47.8610539,33.0729028 C47.406585,29.9417986 44.7240768,27.5274097 41.4838399,27.5274097 C38.2429739,27.5274097 35.5603758,29.9418889 35.1059069,33.0729028 L22.3110376,33.0729028 C22.0819608,31.4945764 21.2889542,30.1002361 20.1394363,29.1042014 L32.27125,29.1042014 L32.27125,6.553625 C32.27125,5.68280556 32.9740278,4.97683333 33.8409069,4.97683333 L41.2501797,4.97683333 C43.3364052,4.97683333 45.286299,6.01782639 46.4536111,7.75468056 L51.2301634,14.8614375 C51.9307843,15.903875 52.3051797,17.1329167 52.3051797,18.3907569 L52.3051797,29.1042014 L54.2151716,29.1042014 C54.6486111,29.1042014 55,29.4571875 55,29.8925972 Z M47.0383007,15.0434375 L43.2187663,9.59129167 C43.0717402,9.38148611 42.8323284,9.25663194 42.5769199,9.25663194 L36.6190359,9.25663194 C36.1856863,9.25663194 35.8342075,9.60961806 35.8342075,10.0450278 L35.8342075,15.4971736 C35.8342075,15.9326736 36.1855964,16.2855694 36.6190359,16.2855694 L46.396634,16.2855694 C47.0323693,16.2855694 47.4042484,15.5657847 47.0383007,15.0434375 Z" id="Shape"></path>
                    </g>
                </g>
            </g>
        </g>
    </g>
</svg>