<?xml version="1.0" encoding="UTF-8"?>
<svg width="62px" height="47px" viewBox="0 0 62 47" version="1.1" xmlns="http://www.w3.org/2000/svg" xmlns:xlink="http://www.w3.org/1999/xlink">
    <!-- Generator: Sketch 52.2 (67145) - http://www.bohemiancoding.com/sketch -->
    <title>delivery-truck-with-circular-clock copy</title>
    <desc>Created with Sketch.</desc>
    <g id="Page-1" stroke="none" stroke-width="1" fill="none" fill-rule="evenodd">
        <g id="8_Доставка-и-оплата" transform="translate(-581.000000, -481.000000)" fill="#3C5B3B">
            <g id="Group-9" transform="translate(100.000000, 407.000000)">
                <g id="Group-8">
                    <g id="delivery-truck-with-circular-clock-copy" transform="translate(481.000000, 74.000000)">
                        <path d="M61.2027137,37.0826505 L59.2657234,37.0826505 L59.2657234,26.2573277 C59.2657234,24.99068 58.8831881,23.7480248 58.1736337,22.696602 L53.3190011,15.511474 C52.1311763,13.7590013 50.1543723,12.7074771 48.033915,12.7074771 L40.5088292,12.7074771 C39.6240137,12.7074771 38.9145606,13.4244208 38.9145606,14.3007078 L38.9145606,37.082853 L26.5905611,37.082853 C27.7623795,38.0943894 28.5674664,39.5043854 28.798649,41.097616 L41.7921866,41.097616 C42.2544506,37.9352486 44.9808252,35.4896224 48.2729996,35.4896224 C51.5652752,35.4896224 54.2835453,37.9352486 54.7460119,41.097616 L61.202815,41.097616 C61.6412718,41.097616 62,40.7391442 62,40.3010007 L62,37.8793671 C61.9998987,37.4413248 61.6412718,37.0826505 61.2027137,37.0826505 Z M53.2631809,24.1303881 L43.3306351,24.1303881 C42.8922796,24.1303881 42.5335514,23.7798125 42.5335514,23.3337727 L42.5335514,17.8294433 C42.5335514,17.3912999 42.8922796,17.032828 43.3306351,17.032828 L49.3810958,17.032828 C49.6441901,17.032828 49.8832747,17.1602824 50.0347287,17.3674085 L53.9168139,22.8797354 C54.283444,23.4055481 53.9088106,24.1303881 53.2631809,24.1303881 Z M48.2729996,37.0826505 C45.530821,37.0826505 43.3147299,39.3050544 43.3147299,42.0452734 C43.3147299,44.7775961 45.530821,47 48.2729996,47 C51.0071748,47 53.2312692,44.7775961 53.2312692,42.0452734 C53.2312692,39.3052569 51.0071748,37.0826505 48.2729996,37.0826505 Z M48.2729996,44.5228898 C46.901809,44.5228898 45.7938141,43.4076891 45.7938141,42.0455771 C45.7938141,40.6753664 46.901809,39.568062 48.2729996,39.568062 C49.6439875,39.568062 50.752185,40.6753664 50.752185,42.0455771 C50.752185,43.4076891 49.6440888,44.5228898 48.2729996,44.5228898 Z M6.93284488,37.0826505 C6.49438808,37.0826505 6.13565991,37.4413248 6.13565991,37.8792659 L6.13565991,40.3010007 C6.13565991,40.7391442 6.49438808,41.097616 6.93284488,41.097616 L15.8449251,41.097616 C16.0761077,39.5043854 16.8811946,38.0943894 18.045111,37.082853 L6.93284488,37.082853 L6.93284488,37.0826505 Z M22.3177348,37.0826505 C19.5835595,37.0826505 17.3594651,39.3050544 17.3594651,42.0452734 C17.3594651,44.7775961 19.5835595,47 22.3177348,47 C25.0599133,47 27.2760045,44.7775961 27.2760045,42.0452734 C27.2761058,39.3052569 25.0600146,37.0826505 22.3177348,37.0826505 Z M22.3177348,44.5228898 C20.9466455,44.5228898 19.8386506,43.4076891 19.8386506,42.0455771 C19.8386506,40.6753664 20.9466455,39.568062 22.3177348,39.568062 C23.688824,39.568062 24.7969203,40.6753664 24.7969203,42.0455771 C24.7969203,43.4076891 23.688824,44.5228898 22.3177348,44.5228898 Z M34.2431924,7.7686444 L25.0041944,7.7686444 C25.4585564,9.11486254 25.6977423,10.5566462 25.6977423,12.0463138 C25.6977423,19.5660222 19.5756576,25.6837322 12.0505718,25.6837322 C10.6793812,25.6837322 9.34820695,25.4767074 8.09665997,25.1022405 L8.09665997,33.9044905 C8.09665997,34.342634 8.45538814,34.7011058 8.89384494,34.7011058 L35.837461,34.7011058 C36.2760192,34.7011058 36.634646,34.342634 36.634646,33.9044905 L36.634646,10.1583891 C36.6345447,8.83606236 35.5663635,7.7686444 34.2431924,7.7686444 Z M12.0523953,0 C5.39601733,0 0,5.39206019 0,12.0436817 C0,18.6953031 5.39601733,24.0874646 12.0523953,24.0874646 C18.7087734,24.0874646 24.104892,18.6953031 24.104892,12.0436817 C24.104892,5.39206019 18.7087734,0 12.0523953,0 Z M12.0523953,21.3467394 C6.91086126,21.3467394 2.74268506,17.1816429 2.74268506,12.0436817 C2.74268506,6.9057204 6.91086126,2.74062395 12.0523953,2.74062395 C17.1940307,2.74062395 21.3621056,6.90582164 21.3621056,12.0436817 C21.3621056,17.1816429 17.1940307,21.3467394 12.0523953,21.3467394 Z" id="Shape" fill-rule="nonzero"></path>
                        <text id="&lt;-100" font-family="Gilroy-Extrabold, Gilroy" font-size="8" font-weight="600" letter-spacing="0.1222307">
                            <tspan x="9.81888465" y="10">&lt;</tspan>
                            <tspan x="5.16465395" y="18">100</tspan>
                        </text>
                    </g>
                </g>
            </g>
        </g>
    </g>
</svg>