<?xml version="1.0" encoding="UTF-8"?>
<svg width="47px" height="47px" viewBox="0 0 47 47" version="1.1" xmlns="http://www.w3.org/2000/svg" xmlns:xlink="http://www.w3.org/1999/xlink">
    <!-- Generator: Sketch 52.2 (67145) - http://www.bohemiancoding.com/sketch -->
    <title>black-envelope</title>
    <desc>Created with Sketch.</desc>
    <g id="Page-1" stroke="none" stroke-width="1" fill="none" fill-rule="evenodd">
        <g id="9_Контакты" transform="translate(-99.000000, -451.000000)">
            <g id="black-envelope" transform="translate(100.000000, 452.000000)">
                <path d="M10.5117536,15.0807244 L20.7707341,22.5369725 C21.235936,22.8746989 21.8769945,23.0247995 22.4996494,22.9966556 C23.1212818,23.0247995 23.7623403,22.875637 24.2275423,22.5369725 L34.4865227,15.0807244 C35.3085499,14.4868889 35.1224691,14 34.0795989,14 L22.5006718,14 L10.9217448,14 C9.87785209,14 9.69177132,14.4868889 10.5117536,15.0807244 Z" id="Path" fill="#3C5B3B"></path>
                <path d="M34.5655311,16.3001797 L23.9378612,24.3428235 C23.5404746,24.6403771 23.019995,24.7852896 22.5014539,24.778527 C21.9819435,24.7852896 21.4614639,24.639411 21.0640773,24.3428235 L10.4344689,16.3001797 C9.645511,15.7041063 9,16.0238798 9,17.0102509 L9,30.2059832 C9,31.1923543 9.81028108,32 10.7998708,32 L22.4995154,32 L34.2001292,32 C35.1897189,32 36,31.1923543 36,30.2059832 L36,17.0102509 C36,16.0238798 35.354489,15.7041063 34.5655311,16.3001797 Z" id="Path" fill="#3C5B3B"></path>
                <g id="Group-6-Copy-2" fill-rule="nonzero" stroke="#3C5B3B">
                    <circle id="Oval" cx="22.5" cy="22.5" r="22.5"></circle>
                </g>
            </g>
        </g>
    </g>
</svg>