<?xml version="1.0" encoding="UTF-8"?>
<svg width="130px" height="149px" viewBox="0 0 130 149" version="1.1" xmlns="http://www.w3.org/2000/svg" xmlns:xlink="http://www.w3.org/1999/xlink">
    <!-- Generator: Sketch 52.5 (67469) - http://www.bohemiancoding.com/sketch -->
    <title>Group</title>
    <desc>Created with Sketch.</desc>
    <g id="Page-1" stroke="none" stroke-width="1" fill="none" fill-rule="evenodd">
        <g id="logo" transform="translate(-91.000000, -75.000000)">
            <g id="Group" transform="translate(91.000000, 83.000000)">
                <path d="M30.5,117 C47.3446849,117 61,103.357638 61,86.5289319 C61,75.3097945 50.8333333,51.8001505 30.5,16 C10.1666667,51.8001505 0,75.3097945 0,86.5289319 C0,103.357638 13.6553151,117 30.5,117 Z" id="Oval-Copy" fill="#263C26" fill-rule="nonzero"></path>
                <path d="M99.5,117 C116.344685,117 130,103.357638 130,86.5289319 C130,75.3097945 119.833333,51.8001505 99.5,16 C79.1666667,51.8001505 69,75.3097945 69,86.5289319 C69,103.357638 82.6553151,117 99.5,117 Z" id="Oval-Copy-2" fill="#263C26" fill-rule="nonzero" transform="translate(99.500000, 66.500000) scale(-1, 1) translate(-99.500000, -66.500000) "></path>
                <path d="M65,101.313708 L65,119.059656 L62.8875077,118.940648 C43.3567218,117.840375 28,101.647512 28,82 C28,68.6259405 39.7399651,41.452387 63.2605247,0.00128451859 L65,-3.06425338 L66.7394753,0.00128451859 C90.2600349,41.452387 102,68.6259405 102,82 C102,101.647512 86.6432782,117.840375 67.1124923,118.940648 L65,119.059656 L65,101.313708 Z" id="Combined-Shape" stroke="#FFFFFF" stroke-width="4" fill="#3C5B3B" fill-rule="nonzero"></path>
                <path d="M25.02,137.26 C22.92,137.26 21.16,136.56 19.78,135.18 C18.4,133.78 17.7,132.06 17.7,130 C17.7,127.94 18.4,126.22 19.78,124.84 C21.16,123.44 22.92,122.74 25.02,122.74 C27.56,122.74 29.84,124.02 31.04,126.08 L29.04,127.24 C28.3,125.86 26.78,124.98 25.02,124.98 C23.52,124.98 22.32,125.46 21.38,126.4 C20.46,127.34 20,128.54 20,130 C20,131.46 20.46,132.66 21.38,133.6 C22.32,134.54 23.52,135.02 25.02,135.02 C26.78,135.02 28.32,134.14 29.04,132.76 L31.04,133.9 C30.46,134.92 29.62,135.74 28.54,136.36 C27.48,136.96 26.3,137.26 25.02,137.26 Z M37.8633217,137.26 C36.4033217,137.26 35.1433217,136.76 34.1233217,135.74 C33.1033217,134.72 32.5833217,133.48 32.5833217,132 C32.5833217,130.52 33.1033217,129.28 34.1233217,128.26 C35.1433217,127.24 36.4033217,126.74 37.8633217,126.74 C39.3433217,126.74 40.5833217,127.24 41.6033217,128.26 C42.6233217,129.28 43.1433217,130.52 43.1433217,132 C43.1433217,133.48 42.6233217,134.72 41.6033217,135.74 C40.5833217,136.76 39.3433217,137.26 37.8633217,137.26 Z M35.6433217,134.26 C36.2433217,134.86 36.9833217,135.16 37.8633217,135.16 C38.7433217,135.16 39.4833217,134.86 40.0833217,134.26 C40.6833217,133.66 40.9833217,132.9 40.9833217,132 C40.9833217,131.1 40.6833217,130.34 40.0833217,129.74 C39.4833217,129.14 38.7433217,128.84 37.8633217,128.84 C36.9833217,128.84 36.2433217,129.14 35.6433217,129.74 C35.0433217,130.34 34.7433217,131.1 34.7433217,132 C34.7433217,132.9 35.0433217,133.66 35.6433217,134.26 Z M45.9466434,127 L53.6066434,127 L53.6066434,137 L51.4466434,137 L51.4466434,129.08 L48.1066434,129.08 L48.1066434,132.8 C48.1066434,135.98 46.6666434,137.24 44.1066434,137 L44.1066434,134.98 C45.3266434,135.2 45.9466434,134.52 45.9466434,132.7 L45.9466434,127 Z M58.6099651,133.34 L63.7299651,127 L65.3899651,127 L65.3899651,137 L63.2699651,137 L63.2699651,130.64 L58.1499651,137 L56.4899651,137 L56.4899651,127 L58.6099651,127 L58.6099651,133.34 Z M77.0532868,127 L77.0532868,134.96 L78.3932868,134.96 L78.3932868,139.68 L76.2732868,139.68 L76.2732868,137 L69.4132868,137 L69.4132868,139.68 L67.2932868,139.68 L67.2932868,134.96 L68.5132868,134.96 C69.1332868,134.1 69.4332868,132.88 69.4332868,131.34 L69.4332868,127 L77.0532868,127 Z M70.8932868,134.96 L74.9332868,134.96 L74.9332868,128.98 L71.5532868,128.98 L71.5532868,131.34 C71.5532868,132.76 71.3332868,133.98 70.8932868,134.96 Z M88.8966085,129.74 C90.1166085,130.38 90.8566085,131.54 90.8566085,133 C90.8566085,134.14 90.4566085,135.1 89.6366085,135.86 C88.8166085,136.62 87.8366085,137 86.6566085,137 L80.6566085,137 L80.6566085,123 L86.2166085,123 C87.3566085,123 88.3366085,123.38 89.1166085,124.12 C89.9166085,124.86 90.3166085,125.78 90.3166085,126.88 C90.3166085,128.1 89.8366085,129.04 88.8966085,129.74 Z M86.2166085,125.16 L82.9566085,125.16 L82.9566085,128.84 L86.2166085,128.84 C87.2366085,128.84 88.0166085,128.04 88.0166085,127 C88.0166085,125.96 87.2366085,125.16 86.2166085,125.16 Z M82.9566085,134.84 L86.6566085,134.84 C87.7166085,134.84 88.5566085,133.98 88.5566085,132.88 C88.5566085,131.78 87.7166085,130.92 86.6566085,130.92 L82.9566085,130.92 L82.9566085,134.84 Z M96.8599302,134.28 L99.4199302,127 L101.71993,127 L97.8799302,137.32 C96.9399302,139.86 95.2199302,141.14 92.9999302,141 L92.9999302,138.98 C94.3599302,139.06 95.1599302,138.44 95.6599302,137.06 L95.7199302,136.92 L91.5199302,127 L93.8199302,127 L96.8599302,134.28 Z M111.643252,127 L111.643252,134.96 L112.983252,134.96 L112.983252,139.68 L110.863252,139.68 L110.863252,137 L104.003252,137 L104.003252,139.68 L101.883252,139.68 L101.883252,134.96 L103.103252,134.96 C103.723252,134.1 104.023252,132.88 104.023252,131.34 L104.023252,127 L111.643252,127 Z M105.483252,134.96 L109.523252,134.96 L109.523252,128.98 L106.143252,128.98 L106.143252,131.34 C106.143252,132.76 105.923252,133.98 105.483252,134.96 Z" id="СолидВуд" fill="#3C5B3B"></path>
            </g>
        </g>
    </g>
</svg>