<?xml version="1.0" encoding="UTF-8"?>
<svg width="216px" height="50px" viewBox="0 0 216 50" version="1.1" xmlns="http://www.w3.org/2000/svg" xmlns:xlink="http://www.w3.org/1999/xlink">
    <!-- Generator: Sketch 52.5 (67469) - http://www.bohemiancoding.com/sketch -->
    <title>Group</title>
    <desc>Created with Sketch.</desc>
    <g id="Page-1" stroke="none" stroke-width="1" fill="none" fill-rule="evenodd">
        <g id="main" transform="translate(-100.000000, -38.000000)" fill="#D8BB84">
            <g id="Group" transform="translate(100.000000, 38.000000)">
                <path d="M84.03,39.39 C80.88,39.39 78.24,38.34 76.17,36.27 C74.1,34.17 73.05,31.59 73.05,28.5 C73.05,25.41 74.1,22.83 76.17,20.76 C78.24,18.66 80.88,17.61 84.03,17.61 C87.84,17.61 91.26,19.53 93.06,22.62 L90.06,24.36 C88.95,22.29 86.67,20.97 84.03,20.97 C81.78,20.97 79.98,21.69 78.57,23.1 C77.19,24.51 76.5,26.31 76.5,28.5 C76.5,30.69 77.19,32.49 78.57,33.9 C79.98,35.31 81.78,36.03 84.03,36.03 C86.67,36.03 88.98,34.71 90.06,32.64 L93.06,34.35 C92.19,35.88 90.93,37.11 89.31,38.04 C87.72,38.94 85.95,39.39 84.03,39.39 Z M103.294983,39.39 C101.104983,39.39 99.2149825,38.64 97.6849825,37.11 C96.1549825,35.58 95.3749825,33.72 95.3749825,31.5 C95.3749825,29.28 96.1549825,27.42 97.6849825,25.89 C99.2149825,24.36 101.104983,23.61 103.294983,23.61 C105.514983,23.61 107.374983,24.36 108.904983,25.89 C110.434983,27.42 111.214983,29.28 111.214983,31.5 C111.214983,33.72 110.434983,35.58 108.904983,37.11 C107.374983,38.64 105.514983,39.39 103.294983,39.39 Z M99.9649825,34.89 C100.864982,35.79 101.974982,36.24 103.294983,36.24 C104.614982,36.24 105.724983,35.79 106.624983,34.89 C107.524982,33.99 107.974983,32.85 107.974983,31.5 C107.974983,30.15 107.524982,29.01 106.624983,28.11 C105.724983,27.21 104.614982,26.76 103.294983,26.76 C101.974982,26.76 100.864982,27.21 99.9649825,28.11 C99.0649825,29.01 98.6149825,30.15 98.6149825,31.5 C98.6149825,32.85 99.0649825,33.99 99.9649825,34.89 Z M115.419965,24 L126.909965,24 L126.909965,39 L123.669965,39 L123.669965,27.12 L118.659965,27.12 L118.659965,32.7 C118.659965,37.47 116.499965,39.36 112.659965,39 L112.659965,35.97 C114.489965,36.3 115.419965,35.28 115.419965,32.55 L115.419965,24 Z M134.414948,33.51 L142.094947,24 L144.584947,24 L144.584947,39 L141.404947,39 L141.404947,29.46 L133.724948,39 L131.234948,39 L131.234948,24 L134.414948,24 L134.414948,33.51 Z M162.07993,24 L162.07993,35.94 L164.08993,35.94 L164.08993,43.02 L160.90993,43.02 L160.90993,39 L150.61993,39 L150.61993,43.02 L147.43993,43.02 L147.43993,35.94 L149.26993,35.94 C150.19993,34.65 150.64993,32.82 150.64993,30.51 L150.64993,24 L162.07993,24 Z M152.83993,35.94 L158.89993,35.94 L158.89993,26.97 L153.82993,26.97 L153.82993,30.51 C153.82993,32.64 153.49993,34.47 152.83993,35.94 Z M179.844912,28.11 C181.674913,29.07 182.784912,30.81 182.784912,33 C182.784912,34.71 182.184912,36.15 180.954913,37.29 C179.724913,38.43 178.254912,39 176.484913,39 L167.484913,39 L167.484913,18 L175.824912,18 C177.534913,18 179.004912,18.57 180.174913,19.68 C181.374912,20.79 181.974913,22.17 181.974913,23.82 C181.974913,25.65 181.254912,27.06 179.844912,28.11 Z M175.824912,21.24 L170.934912,21.24 L170.934912,26.76 L175.824912,26.76 C177.354913,26.76 178.524912,25.56 178.524912,24 C178.524912,22.44 177.354913,21.24 175.824912,21.24 Z M170.934912,35.76 L176.484913,35.76 C178.074912,35.76 179.334913,34.47 179.334913,32.82 C179.334913,31.17 178.074912,29.88 176.484913,29.88 L170.934912,29.88 L170.934912,35.76 Z M191.789895,34.92 L195.629895,24 L199.079895,24 L193.319895,39.48 C191.909895,43.29 189.329895,45.21 185.999895,45 L185.999895,41.97 C188.039895,42.09 189.239895,41.16 189.989895,39.09 L190.079895,38.88 L183.779895,24 L187.229895,24 L191.789895,34.92 Z M213.964878,24 L213.964878,35.94 L215.974877,35.94 L215.974877,43.02 L212.794877,43.02 L212.794877,39 L202.504878,39 L202.504878,43.02 L199.324878,43.02 L199.324878,35.94 L201.154877,35.94 C202.084878,34.65 202.534877,32.82 202.534877,30.51 L202.534877,24 L213.964878,24 Z M204.724877,35.94 L210.784877,35.94 L210.784877,26.97 L205.714878,26.97 L205.714878,30.51 C205.714878,32.64 205.384878,34.47 204.724877,35.94 Z" id="СолидВуд"></path>
                <g id="Group-Copy" fill-rule="nonzero">
                    <path d="M18.4548787,17.7079748 C14.5516262,25.846882 12.6,31.6242238 12.6,35.04 C12.6,40.4132818 15.4829539,45.1132137 19.7864364,47.6773704 C17.7791574,48.9820251 15.38318,49.74 12.81,49.74 C5.73523236,49.74 -3.16191517e-13,44.010208 -3.16191517e-13,36.9421514 C-3.16191517e-13,32.2301137 4.27,22.3560632 12.81,7.32 C14.963027,11.1107553 16.8446532,14.5734135 18.4548787,17.7079748 Z" id="Combined-Shape"></path>
                    <path d="M58.8548801,17.7079748 C54.9516277,25.846882 53.0000015,31.6242238 53.0000015,35.04 C53.0000015,40.4132818 55.8829553,45.1132137 60.1864378,47.6773704 C58.1791589,48.9820251 55.7831815,49.74 53.2100015,49.74 C46.1352338,49.74 40.4000015,44.010208 40.4000015,36.9421514 C40.4000015,32.2301137 44.6700015,22.3560632 53.2100015,7.32 C55.3630285,11.1107553 57.2446547,14.5734135 58.8548801,17.7079748 Z" id="Combined-Shape-Copy" transform="translate(50.293220, 28.530000) scale(-1, 1) translate(-50.293220, -28.530000) "></path>
                    <path d="M29.26,49.1164021 C21.5322614,48.6810572 15.4,42.2766618 15.4,34.44 C15.4,29.0276095 20.3,17.6859733 30.1,0.41509159 C39.9,17.6859733 44.8,29.0276095 44.8,34.44 C44.8,42.2766618 38.6677386,48.6810572 30.94,49.1164021 L30.94,42.8152727 L40.5541666,33.2011061 C40.8822071,32.8730657 40.8822071,32.3412071 40.5541666,32.0131667 C40.2261262,31.6851263 39.6942677,31.6851263 39.3662273,32.0131667 L30.94,40.4393939 L30.94,33.5752727 L36.3963788,28.1188939 C36.7244192,27.7908535 36.7244192,27.2589949 36.3963788,26.9309545 C36.0683384,26.6029141 35.5364798,26.6029141 35.2084394,26.9309545 L30.94,31.1993939 L30.94,21.84 C30.94,21.3760808 30.5639192,21 30.1,21 C29.6360808,21 29.26,21.3760808 29.26,21.84 L29.26,31.020303 L25.1706515,26.9309545 C24.8426111,26.6029141 24.3107525,26.6029141 23.9827121,26.9309545 C23.6546717,27.2589949 23.6546717,27.7908535 23.9827121,28.1188939 L29.26,33.3961818 L29.26,40.260303 L21.0128636,32.0131667 C20.6848232,31.6851263 20.1529646,31.6851263 19.8249242,32.0131667 C19.4968838,32.3412071 19.4968838,32.8730657 19.8249242,33.2011061 L29.26,42.6361818 L29.26,49.1164021 Z" id="Combined-Shape-Copy-3"></path>
                </g>
            </g>
        </g>
    </g>
</svg>