<?xml version="1.0" encoding="UTF-8"?>
<svg width="130px" height="149px" viewBox="0 0 130 149" version="1.1" xmlns="http://www.w3.org/2000/svg" xmlns:xlink="http://www.w3.org/1999/xlink">
    <!-- Generator: Sketch 52.2 (67145) - http://www.bohemiancoding.com/sketch -->
    <title>Group</title>
    <desc>Created with Sketch.</desc>
    <g id="Page-1" stroke="none" stroke-width="1" fill="none" fill-rule="evenodd">
        <g id="1_главная" transform="translate(-92.000000, -1153.000000)">
            <g id="Group" transform="translate(92.000000, 1161.000000)">
                <path d="M30.5,117 C47.3446849,117 61,103.357638 61,86.5289319 C61,75.3097945 50.8333333,51.8001505 30.5,16 C10.1666667,51.8001505 0,75.3097945 0,86.5289319 C0,103.357638 13.6553151,117 30.5,117 Z" id="Oval-Copy" fill="#263C26" fill-rule="nonzero"></path>
                <path d="M99.5,117 C116.344685,117 130,103.357638 130,86.5289319 C130,75.3097945 119.833333,51.8001505 99.5,16 C79.1666667,51.8001505 69,75.3097945 69,86.5289319 C69,103.357638 82.6553151,117 99.5,117 Z" id="Oval-Copy-2" fill="#263C26" fill-rule="nonzero" transform="translate(99.500000, 66.500000) scale(-1, 1) translate(-99.500000, -66.500000) "></path>
                <path d="M65,101.313708 L65,119.059656 L62.8875077,118.940648 C43.3567218,117.840375 28,101.647512 28,82 C28,68.6259405 39.7399651,41.452387 63.2605247,0.00128451859 L65,-3.06425338 L66.7394753,0.00128451859 C90.2600349,41.452387 102,68.6259405 102,82 C102,101.647512 86.6432782,117.840375 67.1124923,118.940648 L65,119.059656 L65,101.313708 Z" id="Combined-Shape" stroke="#F6F6F6" stroke-width="4" fill="#3C5B3B" fill-rule="nonzero"></path>
                <text id="СолидВуд" font-family="Gilroy-Semibold, Gilroy" font-size="20" font-weight="500" letter-spacing="0.3633217" fill="#3C5B3B">
                    <tspan x="17" y="137">СолидВуд</tspan>
                </text>
            </g>
        </g>
    </g>
</svg>