<?xml version="1.0" encoding="UTF-8"?>
<svg width="138px" height="137px" viewBox="0 0 138 137" version="1.1" xmlns="http://www.w3.org/2000/svg" xmlns:xlink="http://www.w3.org/1999/xlink">
    <!-- Generator: Sketch 52.5 (67469) - http://www.bohemiancoding.com/sketch -->
    <title>Group</title>
    <desc>Created with Sketch.</desc>
    <g id="Page-1" stroke="none" stroke-width="1" fill="none" fill-rule="evenodd">
        <g id="logo" transform="translate(-87.000000, -85.000000)">
            <g id="Group" transform="translate(87.000000, 85.000000)">
                <text id="СолидВуд" font-family="Gilroy-Semibold, Gilroy" font-size="20" font-weight="500" letter-spacing="0.3633217" fill="#3C5B3B">
                    <tspan x="21" y="133">СолидВуд</tspan>
                </text>
                <g id="Group-Copy" fill-rule="nonzero">
                    <path d="M41.9716549,39.9986215 C33.0945461,58.8013777 28.6559918,72.1483718 28.6559918,80.039604 C28.6559918,92.4531278 35.2126522,103.311057 45,109.234851 C40.434872,112.248903 34.9857365,114 29.1335916,114 C13.0435533,114 -8.8817842e-14,100.762857 -8.8817842e-14,84.4340132 C-8.8817842e-14,73.5481174 9.71119721,50.7367797 29.1335916,16 C34.0301888,24.7575204 38.3095432,32.7570609 41.9716549,39.9986215 Z" id="Combined-Shape" fill="#263C26"></path>
                    <path d="M134.971655,39.9986215 C126.094546,58.8013777 121.655992,72.1483718 121.655992,80.039604 C121.655992,92.4531278 128.212652,103.311057 138,109.234851 C133.434872,112.248903 127.985736,114 122.133592,114 C106.043553,114 93,100.762857 93,84.4340132 C93,73.5481174 102.711197,50.7367797 122.133592,16 C127.030189,24.7575204 131.309543,32.7570609 134.971655,39.9986215 Z" id="Combined-Shape-Copy" fill="#263C26" transform="translate(115.500000, 65.000000) scale(-1, 1) translate(-115.500000, -65.000000) "></path>
                    <path d="M68.0571429,112 C50.1834617,110.998823 36,96.270425 36,78.2481971 C36,65.8011452 47.3333333,39.7184128 70,5.68434189e-14 C92.6666667,39.7184128 104,65.8011452 104,78.2481971 C104,96.270425 89.8165383,110.998823 71.9428571,112 L71.9428571,97.2051004 L94.2695405,75.3118582 C94.2774506,75.3041017 94.2852885,75.2962719 94.2930532,75.2883698 C94.9859141,74.5832537 94.9759793,73.4499695 94.2708632,72.7571086 C93.548658,72.0474557 92.3911712,72.0468564 91.6682316,72.7557611 L71.9428571,92.0981952 L71.9428571,76.0917366 L84.6183523,63.6577468 C84.6264987,63.6497556 84.6345705,63.6416887 84.6425666,63.6335472 C85.3537425,62.9094376 85.3432578,61.7459088 84.6191482,61.0347328 C83.8774311,60.3062638 82.688969,60.3059032 81.94681,61.0339219 L71.9428571,70.8472702 L71.9428571,49.2826457 C71.9428571,48.2096354 71.0730104,47.3397886 70,47.3397886 C68.9269896,47.3397886 68.0571429,48.2096354 68.0571429,49.2826457 L68.0571429,70.4409385 L58.4674138,61.0339219 C57.7252548,60.3059032 56.5367927,60.3062638 55.7950756,61.0347328 C55.070966,61.7459088 55.0604813,62.9094376 55.7716573,63.6335472 C55.7796534,63.6416887 55.7877251,63.6497556 55.7958715,63.6577468 L68.0571429,75.685405 L68.0571429,91.6920129 L48.7459922,72.7557611 C48.0230526,72.0468564 46.8655658,72.0474557 46.1433606,72.7571086 C45.4382445,73.4499695 45.4283097,74.5832537 46.1211706,75.2883698 C46.1289353,75.2962719 46.1367732,75.3041017 46.1446833,75.3118582 L68.0571429,96.7989181 L68.0571429,112 Z" id="Combined-Shape-Copy-3" fill="#3C5B3B"></path>
                </g>
            </g>
        </g>
    </g>
</svg>