<?xml version="1.0" encoding="UTF-8"?>
<svg width="47px" height="47px" viewBox="0 0 47 47" version="1.1" xmlns="http://www.w3.org/2000/svg" xmlns:xlink="http://www.w3.org/1999/xlink">
    <!-- Generator: Sketch 52.2 (67145) - http://www.bohemiancoding.com/sketch -->
    <title>Group 6 Copy</title>
    <desc>Created with Sketch.</desc>
    <g id="Page-1" stroke="none" stroke-width="1" fill="none" fill-rule="evenodd">
        <g id="9_Контакты" transform="translate(-99.000000, -394.000000)">
            <g id="Group-6-Copy" transform="translate(100.000000, 395.000000)">
                <circle id="Oval" stroke="#3C5B3B" fill-rule="nonzero" cx="22.5" cy="22.5" r="22.5"></circle>
                <g id="call-answer-(4)" transform="translate(12.000000, 12.000000)" fill="#3C5B3B">
                    <path d="M21.4498739,17.3903046 L18.0613066,13.9916207 C17.3863668,13.3174598 16.2686533,13.3379425 15.5702006,14.0386552 L13.8630258,15.7503563 C13.7551691,15.6907414 13.6435301,15.6284713 13.5261547,15.562408 C12.4480917,14.9633506 10.9725788,14.1422701 9.41990831,12.584 C7.8626361,11.0224425 7.04315186,9.54041379 6.44398281,8.45855747 C6.38075645,8.34394253 6.32017765,8.23343678 6.2603553,8.12849425 L7.40612034,6.98114368 L7.9694212,6.41552874 C8.66894556,5.7138046 8.68823496,4.5931954 8.01487106,3.91707471 L4.62630372,0.518011494 C3.95293983,-0.15716092 2.83472206,-0.136678161 2.13519771,0.565045977 L1.18018338,1.5283046 L1.2062808,1.55428736 C0.886051576,1.96406897 0.618458453,2.43668966 0.419323782,2.94635632 C0.235759312,3.43149425 0.121472779,3.89444253 0.0692148997,4.35833908 C-0.378223496,8.07836207 1.31684814,11.4781839 5.91705444,16.0916724 C12.275937,22.4683851 17.400361,21.9866609 17.6214327,21.9631437 C18.1029112,21.9054253 18.5643438,21.7900517 19.0332779,21.6074138 C19.5370716,21.410046 20.0080229,21.1420632 20.4163782,20.8216092 L20.4372436,20.8401954 L21.4047393,19.8900862 C22.1028138,19.1884885 22.1229226,18.0675 21.4498739,17.3903046 Z" id="Path"></path>
                </g>
            </g>
        </g>
    </g>
</svg>