<?xml version="1.0" encoding="iso-8859-1"?>
<!-- Generator: Adobe Illustrator 19.0.0, SVG Export Plug-In . SVG Version: 6.00 Build 0)  -->
<svg version="1.1" id="Capa_1" xmlns="http://www.w3.org/2000/svg" xmlns:xlink="http://www.w3.org/1999/xlink" x="0px" y="0px"
	 viewBox="0 0 342.328 342.328" style="enable-background:new 0 0 342.328 342.328;" xml:space="preserve">
<g>
	<g>
		<path fill="#3C5B3B" d="M149.89,114.309c-1.2-4.4-3.2-8.4-6-11.6c-2.8-3.2-6-5.6-9.6-7.2c-4-1.6-8.4-2.4-13.2-2.4c-6.8,0-12.8,1.6-17.2,4.4
			c-4.4,2.8-7.6,7.2-9.6,12.8c-2.4,5.6-3.2,12.8-3.2,21.2c0,8,1.2,14.4,4,20c2.4,5.6,6,9.6,10.8,12c4.8,2.4,10,4,15.6,4
			c9.6,0,16.8-3.2,22.4-9.2c5.6-6,8-15.2,8-27.6C151.89,124.309,151.09,119.109,149.89,114.309z M131.09,149.109c-1.6,4-4.8,6-9.6,6
			c-3.2,0-5.6-0.8-7.6-2.8s-3.2-4.4-3.6-8c-0.8-3.6-1.2-8.4-1.2-14c0-5.6,0.4-10,1.2-13.6c0.8-3.6,2-6.4,3.6-8c2-2,4.4-2.8,7.6-2.8
			c4.4,0,8,2,9.6,5.6c2,4,2.8,10,2.8,18.4C133.49,138.309,132.69,144.709,131.09,149.109z"/>
	</g>
</g>
<g>
	<g>
		<path fill="#3C5B3B" d="M218.29,93.909c-1.2-1.2-2.8-1.6-4.8-1.6s-3.6,0.4-4.8,1.6c-1.2,1.2-2.4,2.8-3.6,5.2l-81.2,131.6c-1.2,2-2,3.6-2,4.8
			c0,2,0.8,3.2,2.4,4.4c1.6,1.2,2.8,1.6,4.4,1.6c2.4,0,4.8-1.6,6.8-5.2l80.8-130.4c2.8-3.6,4-6.4,4-7.6
			C220.29,96.309,219.49,95.109,218.29,93.909z"/>
	</g>
</g>
<g>
	<g>
		<path fill="#3C5B3B" d="M249.49,184.709c-1.6-4.8-3.6-8.8-6-11.6c-2.8-3.2-6-5.6-9.6-6.8c-3.6-1.6-8-2.4-13.2-2.4c-10.4,0-18,3.2-22.8,9.6
			c-4.8,6.4-7.2,16-7.2,28.4c0,8,1.2,14.4,4,20c2.8,5.2,6.4,9.2,10.8,12c4.8,2.4,10,4,15.6,4c9.6,0,16.8-3.2,22.4-9.2
			c5.6-6,8-15.2,8-27.6C251.49,194.709,250.69,189.509,249.49,184.709z M230.29,219.109c-1.6,4-4.8,6-9.6,6s-8-2-9.6-6
			c-2-4-2.8-10.4-2.8-19.2c0-5.6,0.4-10.4,1.2-13.6c0.8-3.6,2-6,4-8s4.4-2.8,7.6-2.8c4.4,0,8,2,9.6,5.6c2,4,2.8,10,2.8,18.4
			C233.09,208.709,232.29,215.109,230.29,219.109z"/>
	</g>
</g>
<g>
	<g>
		<path fill="#3C5B3B" d="M322.69,171.109l17.6-28.8c3.2-2.8,2.4-7.2-0.8-9.2l-27.2-20l5.2-33.6c0.4-3.6-1.6-7.2-5.2-8l-33.2-8l-8-32.8
			c-0.8-3.6-4.4-6-8-5.2l-33.6,5.2l-20-27.2c-2.4-2.8-6.4-4-9.6-2l-28.8,17.2l-28.8-17.6c-3.2-2-7.2-1.2-9.6,2l-20,27.2l-33.6-5.2
			c-3.6-0.4-7.2,1.6-8,5.2l-8,33.2l-32.8,8c-3.6,0.8-6,4.4-5.2,8l5.2,33.6l-27.2,20c-2.8,2-4,6.4-2,9.6l17.6,28.8l-17.6,28.8
			c-2,3.2-1.2,7.2,2,9.6l27.2,20l-5.6,33.6c-0.4,3.6,1.6,7.2,5.2,8l32.8,8l8,32.8c0.8,3.6,4.4,6,8,5.2l33.6-5.2l20,27.2
			c1.2,2,3.6,2.8,5.6,2.8c1.2,0,2.4-0.4,3.6-1.2l28.8-17.6l28.8,17.6c3.2,2,7.2,1.2,9.6-2l20-27.2l33.6,5.2c3.6,0.4,7.2-1.6,8-5.2
			l8-32.8l32.8-8c3.6-0.8,6-4.4,5.2-8l-5.2-33.6l27.2-20c2.8-2.4,4-6.4,2-9.6L322.69,171.109z M300.29,221.509
			c-2,1.6-3.2,4.4-2.8,6.8l4.8,31.2l-30.8,7.6c-2.8,0.8-4.8,2.8-5.2,5.2l-7.6,30.8l-31.2-4.8c-2.8-0.4-5.2,0.8-6.8,2.8l-18.8,25.6
			l-27.2-16.4c-1.2-0.8-2.4-1.2-3.6-1.2s-2.4,0.4-3.6,1.2l-27.2,16.4l-18.8-25.6c-1.6-2-4.4-3.2-6.8-2.8l-31.2,4.8l-7.6-30.8
			c-0.8-2.8-2.8-4.8-5.2-5.2l-30.8-7.6l4.8-31.2c0.4-2.8-0.8-5.2-2.8-6.8l-25.6-18.8l16.4-27.2c1.2-2.4,1.2-5.2,0-7.6l-16.4-27.2
			l25.6-18.8c2-1.6,3.2-4.4,2.8-6.8l-4.8-31.2l30.8-7.6c2.8-0.8,4.8-2.8,5.2-5.2l7.6-30.8l31.2,4.8c2.8,0.4,5.2-0.8,6.8-2.8
			l18.8-25.6l27.2,16.4c2.4,1.2,5.2,1.2,7.6,0l27.2-16.4l18.8,25.6c1.6,2,4.4,3.2,6.8,2.8l31.2-4.8l7.6,30.8
			c0.8,2.8,2.8,4.8,5.2,5.2l30.8,7.6l-4.8,31.2c-0.4,2.8,0.8,5.2,2.8,6.8l25.6,18.8l-16.8,27.2c-1.2,2.4-1.2,5.2,0,7.6l16.4,27.2
			L300.29,221.509z"/>
	</g>
</g>

</svg>
